<svg xmlns="http://www.w3.org/2000/svg" viewBox="0 0 250.24 280.72"><defs><style>.cls-1{fill:#3a382b;}.cls-2{fill:#fed196;}.cls-2,.cls-3{fill-rule:evenodd;}.cls-3{fill:#caa171;}</style></defs><g id="Layer_2" data-name="Layer 2"><g id="Layer_1-2" data-name="Layer 1"><g id="Layer_2-2" data-name="Layer 2"><g id="Layer_1-2-2" data-name="Layer 1-2"><path class="cls-1" d="M48.33,152.63A37.1,37.1,0,0,1,44.1,141c-.69-4.09-1.05-8.39-1.41-12.67-.93-11-1.85-22-9-28.19a77.48,77.48,0,0,1-11.9-12.65,46.15,46.15,0,0,1-7-13.11c-2.44-7.58-1.2-13.15,2.46-17.25,3.45-3.86,9-6.13,15.42-7.48,22.57-4.63,35.39,19.74,43,34.24C78.13,88.55,79.93,92,80.12,92c3.9.92,6,.35,7.24-.59A5.42,5.42,0,0,0,89,88.72h0c.87-3.62,17.58-71.92,44.1-85.88A21.28,21.28,0,0,1,143.72,0a12.82,12.82,0,0,1,9.39,4.42,20.14,20.14,0,0,1,4.4,9.52,38,38,0,0,1-1.3,18.42c-3,9.31-7.64,20.62-12.14,31.51-4.87,11.78-9.52,23.05-11.44,29.92,6.43-11.21,20.73-34,37.6-47.1,9.4-7.32,17.81-11.28,24.9-12.78a26.85,26.85,0,0,1,13,.16,17,17,0,0,1,12.23,13.06c2.46,11.67-3,16.51-9.77,22.59-1.52,1.35-3.12,2.78-4.7,4.38l-.28.29a257,257,0,0,0-36.19,45.06c3.35-2.08,8.48-6,14.17-10.27,9-6.83,19.4-14.67,27-18.58,13-6.68,23.47-6.23,30.38-2.16a18.57,18.57,0,0,1,6.88,7,19.66,19.66,0,0,1,2.39,9.4c0,7.86-4.42,16.48-14.28,22.32-5,3,.85-.51-2.42,1.42-11.45,6.76-26.66,15.75-39.08,26.59s-18.62,22.1-33.66,33.48c-14.44,11-31.33,19.89-42.8,19.35a32,32,0,0,1-4.37-.51l-35.4,53.67A42.47,42.47,0,0,1,.12,235.11a41.11,41.11,0,0,1,1.64-9c1.33-4.52,1.79-4.41,3.92-8.2L48.33,152.6M93,195.27c-9.55-10.13-5.41-14.5,4.36-4.14,7,7.44,14.15,10.59,20.89,10.89,8.88.39,23.71-7.6,36.7-16.84,18.81-13.38,21-21.76,35.59-34.49,12.78-11.15,28.21-20.28,39.86-27.16l2.52-1.49c7.82-4.64,11.36-11.24,11.34-17.16a13.49,13.49,0,0,0-1.65-6.51A12.67,12.67,0,0,0,238,93.59c-5.3-3.13-13.72-3.28-24.61,2.33-7.17,3.68-17.31,11.35-26.14,18-7.49,5.67-14.07,10.64-17.58,12.21a6.43,6.43,0,0,1-4.62.39,5,5,0,0,1-1.7-1,4.58,4.58,0,0,1-1.2-1.63,5,5,0,0,1-.14-3.71,3,3,0,0,1,.33-.7c16.57-26.48,30.45-40.55,39-49.27l.28-.29c1.69-1.72,3.39-3.23,5-4.67,5.37-4.79,9.65-8.62,7.9-16.91a11.22,11.22,0,0,0-2.1-4.6,11.43,11.43,0,0,0-6-3.91,20.8,20.8,0,0,0-10.1-.07c-6.26,1.32-13.83,4.92-22.45,11.64-21.9,17.05-39.54,51.66-39.59,51.76a3,3,0,0,1-1.81,1.5h0c-3.47,1-5.51-.19-6.4-3.21-1.68-5.69,5.16-22.24,12.43-39.85,4.5-10.9,9.18-22.22,12-31a31.92,31.92,0,0,0,1.13-15.46,14.26,14.26,0,0,0-3-6.71A7,7,0,0,0,143.49,6a15.55,15.55,0,0,0-7.61,2.16c-24.78,13-41.06,81.93-41.11,82.13v.16h0a11.09,11.09,0,0,1-3.69,5.67c-2.4,1.9-6.22,3.16-12.3,1.73-2.85-.67-5.18-5.12-8.36-11.16C63.54,73.66,52,51.78,33.86,55.51c-5.29,1.09-9.66,2.82-12.13,5.59-2.24,2.52-2.93,6.18-1.23,11.45A40.2,40.2,0,0,0,26.6,84,71.39,71.39,0,0,0,37.54,95.58c9.05,7.83,10.07,20,11.1,32.23C49,131.9,49.32,136,50,140c1.14,6.73,7.51,16.89,12.64,21.21a3,3,0,0,1-3.88,4.55,49.1,49.1,0,0,1-6.91-7.64C39.14,176.78,10.6,217.37,7.5,227.83a36.51,36.51,0,0,0,65.91,29.79c10.92-17.37,22.84-34.71,34.21-51.9A42.23,42.23,0,0,1,93,195.27Z"/><path class="cls-2" d="M190.56,150.69C176,163.42,173.78,171.8,155,185.18c-13,9.24-27.82,17.23-36.7,16.84-6.74-.3-13.87-3.45-20.89-10.89-9.77-10.36-13.91-6-4.36,4.14a42.25,42.25,0,0,0,14.6,10.45c-11.37,17.19-23.29,34.53-34.21,51.9A36.5,36.5,0,0,1,7.5,227.83c3.1-10.46,31.64-51.05,44.35-69.76a49.1,49.1,0,0,0,6.91,7.64,3,3,0,0,0,3.88-4.55C57.51,156.84,51.14,146.68,50,140c-.68-3.95-1-8-1.36-12.14-1-12.28-2-24.4-11.1-32.23A71.71,71.71,0,0,1,26.6,84a40.32,40.32,0,0,1-6.1-11.4c-1.7-5.27-1-8.93,1.23-11.45,2.47-2.77,6.84-4.5,12.13-5.59C52,51.78,63.54,73.66,70.39,86.67c3.18,6,5.51,10.49,8.36,11.16,6.08,1.43,9.9.17,12.3-1.73a11.09,11.09,0,0,0,3.69-5.67h0v-.16c0-.2,16.33-69.09,41.11-82.13A15.53,15.53,0,0,1,143.49,6a7,7,0,0,1,5.15,2.42,14.26,14.26,0,0,1,3,6.71,31.92,31.92,0,0,1-1.13,15.46c-2.81,8.81-7.49,20.13-12,31-7.27,17.61-14.11,34.16-12.43,39.85.89,3,2.93,4.23,6.4,3.21a3,3,0,0,0,1.81-1.5c.05-.1,17.69-34.71,39.59-51.76,8.62-6.72,16.19-10.32,22.45-11.64a20.8,20.8,0,0,1,10.1.07,11.43,11.43,0,0,1,6,3.91,11.22,11.22,0,0,1,2.1,4.6c1.75,8.29-2.53,12.12-7.9,16.91-1.61,1.44-3.31,3-5,4.67l-.28.29c-8.58,8.72-22.46,22.82-39.07,49.35a3,3,0,0,0-.33.7,5,5,0,0,0,.14,3.71,4.58,4.58,0,0,0,1.2,1.63,5,5,0,0,0,1.7,1,6.43,6.43,0,0,0,4.62-.39c3.51-1.57,10.09-6.54,17.58-12.21,8.83-6.68,19-14.35,26.14-18,10.89-5.61,19.31-5.46,24.61-2.33a12.75,12.75,0,0,1,4.67,4.78,13.49,13.49,0,0,1,1.65,6.51c0,5.92-3.52,12.52-11.34,17.16l-2.52,1.49c-11.65,6.88-27.08,16-39.86,27.16"/><path class="cls-3" d="M146.29,191c-10.49,6.53-21.07,11.35-28,11-6.74-.3-13.87-3.45-20.89-10.89a31.73,31.73,0,0,0-5.15-4.54h0c14.48,7.93,31.62,11,54.06,4.39"/><path class="cls-3" d="M42.66,171.5c3.48-5.07,6.65-9.69,9.19-13.43a49.1,49.1,0,0,0,6.91,7.64c-6.69-1.85-11.59,1.41-16.1,5.79"/><path class="cls-3" d="M90.34,192.12A40.94,40.94,0,0,0,93,195.27a42.25,42.25,0,0,0,14.6,10.45c-1.91,2.89-7.41,11.13-9.35,14,1.56-7.15-2.48-19.87-7.93-27.63"/><path class="cls-3" d="M61.4,269.42c-.77.47-1.56.91-2.36,1.31A36.5,36.5,0,0,1,6.09,235.54a2.57,2.57,0,0,1,.06-.67c4.83,23.77,31,39.83,55.25,34.55"/></g></g></g></g></svg>