<svg xmlns="http://www.w3.org/2000/svg" viewBox="0 0 540.48 239.35"><defs><style>.cls-1{fill:#fff;}.cls-2{fill:#ffcd00;}</style></defs><g id="Layer_2" data-name="Layer 2"><g id="Layer_1-2" data-name="Layer 1"><path d="M24.91,101,93.47,81.76l-2.73,42.33-3.37.78c-10.43,2.41-20.32,4.94-29.43,7.55-.53,2.36-1,4.68-1.4,6.92l0,.16L56.18,141l29.16-10.19-2.22,34.8-3.12.93c-10.78,3.19-21.12,6.6-30.78,10.13-2.54,14.82-4.6,29.59-6.12,43.94l-.3,2.8-40,15.9Z"/><path class="cls-1" d="M4.66,227.34a2.32,2.32,0,0,1-2.3-2.69L22.67,97.34a2.33,2.33,0,0,1,1.67-1.87L83.69,78.8a2.28,2.28,0,0,1,.63-.09,2.34,2.34,0,0,1,1.47.52,2.36,2.36,0,0,1,.86,2L84.57,113.5a2.33,2.33,0,0,1-1.8,2.11c-11,2.54-21.36,5.22-30.87,8-.66,2.86-1.24,5.68-1.73,8.38,0,0-1.21,5.67-1.21,5.67l26.44-9.24a2.27,2.27,0,0,1,.77-.13,2.37,2.37,0,0,1,1.41.47,2.34,2.34,0,0,1,.91,2l-1.56,24.55a2.35,2.35,0,0,1-1.66,2.08C64,160.71,53.14,164.29,43.08,168c-2.66,15.32-4.8,30.59-6.37,45.43a2.33,2.33,0,0,1-1.45,1.91L5.52,227.18A2.34,2.34,0,0,1,4.66,227.34Z"/><path class="cls-2" d="M52.86,124.63c-.81,3.35-1.49,6.62-2.07,9.82l-2.06,9.65,30.35-10.61L77.51,158q-17.83,5.28-33.58,11.15-4.18,23.84-6.62,46.9L7.57,227.92l20.31-127.3L87.23,84l-2.08,32.3Q67.79,120.27,52.86,124.63Z"/><path d="M84.32,81l-2.07,32.3q-17.37,4-32.3,8.38-1.22,5-2.07,9.82l-2.06,9.65,30.35-10.61L74.6,155.13Q56.77,160.41,41,166.28q-4.19,23.83-6.62,46.9L4.66,225,25,97.71,84.32,81m-8.15,49.54h0m8.15-54.2a4.57,4.57,0,0,0-1.26.18L23.71,93.23A4.64,4.64,0,0,0,20.37,97L.06,224.28a4.66,4.66,0,0,0,6.32,5.06l29.74-11.83A4.69,4.69,0,0,0,39,213.67c1.52-14.36,3.57-29.13,6.12-43.95,9.65-3.53,20-6.93,30.78-10.13a4.65,4.65,0,0,0,3.32-4.17L80.81,131c0-.14,0-.28,0-.42a4.66,4.66,0,0,0-4.6-4.66H76a4.75,4.75,0,0,0-1.46.3L52.1,134.06l.34-1.55,0-.15c.4-2.24.87-4.57,1.4-6.93,9.11-2.6,19-5.14,29.42-7.55a4.64,4.64,0,0,0,3.6-4.24L89,81.34a4.67,4.67,0,0,0-4.65-5Z"/><path d="M181.74,204.28c-15,0-22.42-10.49-26-19.3a59.55,59.55,0,0,1-4.35-23.45,112.32,112.32,0,0,1,3.78-27.17,141.64,141.64,0,0,1,22.42-48.17c13.31-18.85,27.92-29.52,43.41-31.7a34.82,34.82,0,0,1,4.9-.36c15.2,0,22.69,10.91,26.29,20.06l1,2.56-24.82,30.08L224.81,102a3.85,3.85,0,0,0-3.49-1.64,8.72,8.72,0,0,0-1.31.1c-6.35.89-12.69,6.67-18.84,17.18A104.67,104.67,0,0,0,190,145.3a40.21,40.21,0,0,0-1.43,9.7c0,3.48.8,6.08,2.36,7.73l.05,0a6.5,6.5,0,0,0,5.11,2,14.86,14.86,0,0,0,1.93-.14c4.22-.6,8.31-3.27,12.15-7.94a41.71,41.71,0,0,0,3.65-5.13c-4.57,1.66-9,3.32-13.09,4.95l-8,3.17,7.81-37.24,54.54-19.37.2,6.38c.24,8-1.47,17.49-5.11,28.17a144.44,144.44,0,0,1-12,26.09c-14.24,23.89-31.55,37.41-51.45,40.21A35.41,35.41,0,0,1,181.74,204.28Z"/><path class="cls-1" d="M177.66,195c-11,0-19-6-23.88-17.89a57.22,57.22,0,0,1-4.17-22.54,109.81,109.81,0,0,1,3.72-26.6,139.4,139.4,0,0,1,22-47.39c12.94-18.31,27-28.65,41.84-30.74a33.14,33.14,0,0,1,4.58-.33c11.15,0,19.27,6.25,24.12,18.58a2.34,2.34,0,0,1-.37,2.34L226.29,93.76a2.37,2.37,0,0,1-1.8.84h-.07a2.36,2.36,0,0,1-1.81-.94,6.13,6.13,0,0,0-5.37-2.59,11.57,11.57,0,0,0-1.62.12c-7.1,1-14,7.15-20.54,18.31a106.88,106.88,0,0,0-11.37,28.26,42.09,42.09,0,0,0-1.5,10.25c0,4.11,1,7.25,3,9.34a8.81,8.81,0,0,0,6.85,2.76,16.2,16.2,0,0,0,2.25-.16c4.82-.68,9.4-3.63,13.63-8.76a49.07,49.07,0,0,0,6.71-10.82c-6.65,2.34-13,4.68-18.81,7a2.33,2.33,0,0,1-3.14-2.64l5.51-26.23a2.3,2.3,0,0,1,1.5-1.71l46.06-16.36a2.33,2.33,0,0,1,.78-.14,2.35,2.35,0,0,1,2.33,2.26c.23,7.73-1.44,16.93-5,27.34a141,141,0,0,1-11.83,25.66c-13.86,23.25-30.6,36.4-49.76,39.09A34,34,0,0,1,177.66,195Z"/><path class="cls-2" d="M184.88,195.23q-18.4,2.6-26-16.12a54.71,54.71,0,0,1-4-21.66,107,107,0,0,1,3.64-26,136.53,136.53,0,0,1,21.7-46.62Q199.11,58,220.46,55,239,52.42,246.67,71.82L227.4,95.19q-3.12-4.26-9.2-3.4Q206.4,93.46,196,111.23a109.26,109.26,0,0,0-11.62,28.88,44.12,44.12,0,0,0-1.57,10.81q0,7.13,3.65,10.94,4,4.3,11.11,3.3,8.14-1.14,15.1-9.58a54,54,0,0,0,9-16.2q-12.84,4.41-23.78,8.72l5.51-26.22,46.06-16.36q.34,11.22-4.86,26.52A139.2,139.2,0,0,1,233,157.26Q212.66,191.34,184.88,195.23Z"/><path d="M221.8,51.81q15.22,0,22,17.1L224.49,92.28a8.48,8.48,0,0,0-7.25-3.54,14.91,14.91,0,0,0-2,.14q-11.81,1.66-22.22,19.44a109.26,109.26,0,0,0-11.62,28.88A44.12,44.12,0,0,0,179.88,148q0,7.13,3.65,10.94a11.08,11.08,0,0,0,8.53,3.49,18,18,0,0,0,2.58-.19q8.15-1.14,15.1-9.58a54,54,0,0,0,9-16.2q-12.84,4.41-23.78,8.73L200.49,119l46.06-16.36q.34,11.22-4.86,26.52a139.2,139.2,0,0,1-11.63,25.22q-20.31,34.08-48.09,38a31,31,0,0,1-4.31.32q-15,0-21.73-16.44a54.71,54.71,0,0,1-4-21.66,107,107,0,0,1,3.64-26,136.43,136.43,0,0,1,21.7-46.62q18.91-26.78,40.27-29.78a29.86,29.86,0,0,1,4.25-.31m0-4.66a36.1,36.1,0,0,0-4.9.35c-15.49,2.18-30.1,12.85-43.42,31.71a141.75,141.75,0,0,0-22.42,48.19,112.39,112.39,0,0,0-3.78,27.14A59.73,59.73,0,0,0,151.63,178c2.55,6.23,6,11,10.28,14.25a25.49,25.49,0,0,0,15.75,5,35.65,35.65,0,0,0,5-.36c19.9-2.79,37.2-16.32,51.44-40.19a144.61,144.61,0,0,0,12-26.08,0,0,0,0,1,0,0c3.63-10.68,5.35-20.15,5.1-28.16A4.65,4.65,0,0,0,245,98.22l-46.06,16.36a4.67,4.67,0,0,0-3,3.43l-5.5,26.23a4.65,4.65,0,0,0,4.55,5.61,4.59,4.59,0,0,0,1.71-.32c4.15-1.64,8.53-3.29,13.1-4.95a43.59,43.59,0,0,1-3.63,5.11c-3.86,4.69-7.95,7.36-12.17,7.95a13.36,13.36,0,0,1-1.93.15,6.52,6.52,0,0,1-5.12-2l0,0c-1.57-1.64-2.36-4.24-2.36-7.73a40,40,0,0,1,1.42-9.65v0a104.94,104.94,0,0,1,11.13-27.66c6.15-10.49,12.49-16.27,18.84-17.17a10.16,10.16,0,0,1,1.3-.09,3.86,3.86,0,0,1,3.5,1.63,4.65,4.65,0,0,0,3.62,1.9h.13a4.65,4.65,0,0,0,3.59-1.69l19.27-23.36a4.66,4.66,0,0,0,.74-4.67c-2.55-6.46-6-11.44-10.33-14.8a25.32,25.32,0,0,0-16-5.26Z"/><path d="M280.48,53.85l42.78-13.41-2,8.07c-4.93,19.57-9.09,37.77-12.41,54.24l4.09-1.44,8.87-53.26,42.77-13.41-2,8.06c-12.16,48.6-19.94,90.06-23.14,123.21l-.28,2.84L299,184.66,307,136l-4.69,1.65c-2,13.2-3.39,24.65-4.24,34.06l-.26,2.85-40.18,15.93Z"/><path class="cls-1" d="M259.53,178.45a2.33,2.33,0,0,1-2.3-2.71l21-125.67a2.33,2.33,0,0,1,1.6-1.83l32.11-10.07a2.38,2.38,0,0,1,.7-.11,2.34,2.34,0,0,1,2.25,2.9c-5.33,21.21-9.78,40.82-13.23,58.36l9.25-3.25,8.63-51.8a2.31,2.31,0,0,1,1.6-1.84l32.11-10.07a2.37,2.37,0,0,1,.7-.1,2.33,2.33,0,0,1,1.59.63,2.3,2.3,0,0,1,.66,2.26C344,83.86,336.22,125.43,333,158.71a2.37,2.37,0,0,1-1.46,1.94l-29.86,11.83a2.33,2.33,0,0,1-3.15-2.55l7.34-44.44-9.72,3.42c-2.08,13.84-3.57,25.81-4.46,35.59a2.34,2.34,0,0,1-1.46,1.95l-29.86,11.83A2.26,2.26,0,0,1,259.53,178.45Z"/><path class="cls-2" d="M283.44,53.37,315.55,43.3q-8.67,34.42-14,62.48l14.38-5.07,8.85-53.15,32.12-10.07q-18.41,73.57-23.26,123.9l-29.85,11.83,8-48.33L297,130.09q-3.3,21.81-4.69,37.11L262.44,179Z"/><path d="M354,34.58h0m0,0q-18.4,73.57-23.26,123.9l-29.86,11.83,8-48.33-14.75,5.2q-3.3,21.81-4.69,37.11l-29.85,11.83,21-125.66,32.11-10.07q-8.67,34.42-14,62.48L313,97.8l8.85-53.15L354,34.58m0-4.65h-.25a5,5,0,0,0-1.24.24l-32,10a4.66,4.66,0,0,0-3.2,3.68l-8.4,50.44-4.1,1.44c3.32-16.47,7.49-34.68,12.41-54.24a4.66,4.66,0,0,0-4.51-5.8,4.5,4.5,0,0,0-1.4.22L279.13,46a4.65,4.65,0,0,0-3.19,3.68l-21,125.66a4.65,4.65,0,0,0,6.31,5.1l29.85-11.83a4.66,4.66,0,0,0,2.93-3.91c.85-9.41,2.27-20.86,4.23-34.07l4.69-1.64-6.7,40.55a4.65,4.65,0,0,0,6.31,5.09l29.85-11.83a4.64,4.64,0,0,0,2.92-3.88c3.2-33.12,11-74.53,23.11-123.07a4.83,4.83,0,0,0,.17-1.28,4.65,4.65,0,0,0-4.55-4.65Z"/><path d="M113.43,84.76,154,71.52l-2.05,8.17C140,127.35,132.09,168.84,128.43,203l-.29,2.74L90.2,221.57Z"/><path class="cls-1" d="M92.13,209.37a2.35,2.35,0,0,1-1.45-.51,2.32,2.32,0,0,1-.84-2.21L111.18,80.94a2.33,2.33,0,0,1,1.58-1.83l29.85-9.75a2.57,2.57,0,0,1,.72-.11,2.37,2.37,0,0,1,1.59.62,2.32,2.32,0,0,1,.67,2.27c-12,47.76-19.87,89.36-23.55,123.63a2.31,2.31,0,0,1-1.42,1.9L93,209.19A2.37,2.37,0,0,1,92.13,209.37Z"/><path class="cls-2" d="M116.39,84.24l29.85-9.75q-18,72.14-23.6,123.94L95,210Z"/><path d="M143.33,71.58q-18,72.14-23.6,123.94L92.13,207,113.48,81.33l29.85-9.75m0-4.66a4.76,4.76,0,0,0-1.44.23L112,76.9a4.66,4.66,0,0,0-3.14,3.65L87.54,206.26a4.65,4.65,0,0,0,4.59,5.43,4.44,4.44,0,0,0,1.79-.36l27.6-11.51a4.65,4.65,0,0,0,2.84-3.8c3.66-34.17,11.56-75.66,23.49-123.31a4.65,4.65,0,0,0-4.52-5.79Z"/><path d="M398.64,75.73l-2.09.67-14.9,4.9-2.72-42,83.34-21.34-1.36,42.33-3.63.72c-7,1.38-13.74,2.82-20.09,4.28-7.21,31.7-12.16,61-14.71,87.1l-.27,2.81-39.67,15.9Z"/><path class="cls-1" d="M384.44,159a2.33,2.33,0,0,1-1.46-.52,2.3,2.3,0,0,1-.83-2.2l15.34-90.9c-1.91.58-3.83,1.18-5.73,1.8l-9.19,3a2.64,2.64,0,0,1-.73.11,2.36,2.36,0,0,1-1.31-.39,2.39,2.39,0,0,1-1-1.79L377.43,36a2.31,2.31,0,0,1,1.75-2.4l73.59-18.85a2.25,2.25,0,0,1,.58-.07,2.27,2.27,0,0,1,1.45.51,2.32,2.32,0,0,1,.87,1.89l-1,32.43a2.32,2.32,0,0,1-1.87,2.21c-7.54,1.49-14.8,3.05-21.59,4.63-7.41,32.34-12.48,62.21-15.08,88.81a2.31,2.31,0,0,1-1.45,1.93l-29.33,11.76A2.4,2.4,0,0,1,384.44,159Z"/><path class="cls-2" d="M456.26,19.91l-1.05,32.43q-12.15,2.41-23.08,5-11.46,49.7-15.45,90.52L387.35,159.6l16-94.58q-4.69,1.35-9.37,2.88l-9.2,3-2.08-32.17Z"/><path d="M453.35,17l-1,32.43q-12.17,2.41-23.09,5-11.46,49.7-15.45,90.52l-29.33,11.76,16-94.58Q395.71,63.46,391,65l-9.2,3-2.08-32.17L453.35,17m0-4.65a5,5,0,0,0-1.16.14L378.6,31.34a4.65,4.65,0,0,0-3.49,4.81l2.08,32.17a4.66,4.66,0,0,0,4.65,4.35,4.49,4.49,0,0,0,1.45-.23l9.2-3,2.08-.67-14.72,87.17a4.66,4.66,0,0,0,4.59,5.43,4.51,4.51,0,0,0,1.73-.33l29.34-11.76a4.67,4.67,0,0,0,2.9-3.87c2.55-26.11,7.49-55.4,14.7-87.09,6.36-1.47,13.1-2.91,20.1-4.29A4.66,4.66,0,0,0,457,49.58l1-32.43a4.65,4.65,0,0,0-4.65-4.8Z"/><path d="M464.44,160.08a18.67,18.67,0,0,1-6.32-1.05l-.06,0c-5.42-2-8.4-6.4-8.4-12.28,0-6.61,3.22-13.08,9.57-19.25a38.54,38.54,0,0,1,16.6-9.62,24.44,24.44,0,0,1,6.62-1,18.57,18.57,0,0,1,7,1.34A12.32,12.32,0,0,1,498,130.48c0,6.65-3.37,13.12-10,19.2A39.11,39.11,0,0,1,471.69,159,27.46,27.46,0,0,1,464.44,160.08ZM493.14,6.89l47.34,1.27-3.4,6.59C527.57,33.16,520.49,47.67,516,57.89a389.79,389.79,0,0,0-16.11,45l-.89,3-34,3.31Z"/><path class="cls-1" d="M460.37,150.77a16.59,16.59,0,0,1-5.54-.91c-4.54-1.71-6.92-5.2-6.92-10.12,0-6,3-11.86,8.87-17.57a36.17,36.17,0,0,1,15.59-9,22.44,22.44,0,0,1,6-.89,16.22,16.22,0,0,1,6.2,1.19,10,10,0,0,1,7,10.07c0,6-3.12,11.86-9.26,17.49a36.78,36.78,0,0,1-15.36,8.8A24.68,24.68,0,0,1,460.37,150.77Zm6.88-51.53A2.34,2.34,0,0,1,465,96.29L490.34,4a2.33,2.33,0,0,1,2.25-1.71l36.34,1a2.32,2.32,0,0,1,2,3.39c-9.53,18.45-16.63,33-21.11,43.28a393.1,393.1,0,0,0-16.21,45.23,2.32,2.32,0,0,1-2,1.67l-24.13,2.35Z"/><path class="cls-2" d="M475.89,118.28a16.11,16.11,0,0,1,10.76.22,7.73,7.73,0,0,1,5.55,7.9q0,8-8.5,15.78a34.43,34.43,0,0,1-14.41,8.27q-6.24,1.74-10.76.12-5.38-2-5.38-7.92,0-8,8.16-15.9A33.67,33.67,0,0,1,475.89,118.28ZM495.5,7.57l36.28,1Q517.37,36.44,510.6,52a393,393,0,0,0-16.31,45.51l-24.13,2.35Z"/><path d="M492.59,4.66l36.27,1q-14.4,27.9-21.17,43.42a393,393,0,0,0-16.32,45.51l-24.12,2.35L492.59,4.66m-14.21,109.9a14,14,0,0,1,5.36,1,7.72,7.72,0,0,1,5.55,7.9q0,8-8.5,15.78a34.43,34.43,0,0,1-14.41,8.27,22.53,22.53,0,0,1-6,.9,14,14,0,0,1-4.75-.78q-5.39-2-5.38-7.92,0-8,8.16-15.9A33.67,33.67,0,0,1,473,115.37a19.77,19.77,0,0,1,5.4-.81M492.59,0a4.67,4.67,0,0,0-4.49,3.42L462.76,95.68a4.66,4.66,0,0,0,4.49,5.89,3.4,3.4,0,0,0,.45,0l24.13-2.35a4.64,4.64,0,0,0,4-3.32A391.14,391.14,0,0,1,512,50.9c4.45-10.21,11.53-24.73,21-43.13A4.66,4.66,0,0,0,529,1L492.71,0ZM478.38,109.91a24.88,24.88,0,0,0-6.65,1,38.52,38.52,0,0,0-16.55,9.6l0,0c-6.35,6.16-9.57,12.64-9.57,19.24,0,5.89,3,10.25,8.4,12.28l.07,0a18.59,18.59,0,0,0,6.32,1,26.91,26.91,0,0,0,7.26-1.08,39.08,39.08,0,0,0,16.31-9.33c6.64-6.09,10-12.54,10-19.2a12.3,12.3,0,0,0-8.53-12.24,18.61,18.61,0,0,0-7-1.34Z"/></g></g></svg>