<svg xmlns="http://www.w3.org/2000/svg" viewBox="0 0 202.55 280.69"><defs><style>.cls-1{fill:#3a382b;}.cls-2{fill:#fed196;}.cls-2,.cls-3{fill-rule:evenodd;}.cls-3{fill:#caa171;}</style></defs><g id="Layer_2" data-name="Layer 2"><g id="Layer_3" data-name="Layer 3"><g id="Layer_2-2" data-name="Layer 2"><g id="Layer_1-2" data-name="Layer 1-2"><path class="cls-1" d="M189.11,64.92a3,3,0,0,1-.21-4.07M78.4,261.24A42.63,42.63,0,0,1,1.83,225.71c1.37-4.53,1.82-4.42,4-8.21l35.2-53.38C26.19,154.23,12.83,139.28,16.12,121v-.26c3.11-13.34,11.51-26.44,24-27.53,7.1-.64,17.63,2,27.3,6.91,0-11.53.16-50,4.31-74.59C72.76,19.78,74,13.64,77,8.78,80.2,3.51,85.13-.1,93.18,0c6.25.08,11.11,3.61,14.46,8.92,3.49,5.57,5.29,13.18,5.2,20.7-.09,8.26-1.07,18.74-2,29.18-1.57,16.79-3.12,33.48-1,39.28,5.21-7.5,25.86-36.49,44.46-53.31C163.45,36.5,171.41,31.89,178,30a22.55,22.55,0,0,1,11.21-.63,15.4,15.4,0,0,1,8.26,4.78,18.57,18.57,0,0,1,4,7.38c3.31,11.5-1.77,16.75-8.13,23.33l-.15.15c-1.34,1.37-2.74,2.83-4.23,4.58-1.83,2.15-4.09,4.51-6.69,7.22-7.25,7.54-16.45,16.06-25.85,31.21h.09l.15-.06c9.39-4,18.22-1.81,21.93,2.74A29,29,0,0,1,185,120a35.34,35.34,0,0,1,1.09,24.3,82.86,82.86,0,0,1-3.29,8.74c-1.28,2.89-2.67,5.72-4.11,8.44-6.59,12.55-27.1,34.4-44,40.63C130,203.77,123,204.94,116,205Zm21.25-65.33c6.79,5.39,25.87,3.67,34.12.3,15-6.12,34.07-26.74,39.74-37.51,1.4-2.66,2.73-5.37,3.93-8.08a78.34,78.34,0,0,0,3.07-8.1,29.52,29.52,0,0,0-.88-20.31c-4-9.31-10.4-13.36-20.52-9h0c-8.58,4.26-12,9.6-17.48,17.62-6.46,9.62-14.12,18.43-2.94,25.88,9.43,6.28,17.06-.22,23.35-9.4a20.2,20.2,0,0,0,3.83-9.61c.53-5.89,7.81-8.55,5.73,1.68a31.75,31.75,0,0,1-4.81,11.21c-8,11.74-19.25,19-31.32,10.93-13.93-9.29-7.22-21.15,1.36-33.93a94.94,94.94,0,0,1,8.22-11c11.5-21.59,24.09-34.74,32.92-43.9,2.51-2.61,4.7-4.9,6.43-6.94,1.43-1.68,3-3.31,4.5-4.86l.15-.17c5-5.19,9-9.33,6.67-17.5a12.5,12.5,0,0,0-2.66-5,9.72,9.72,0,0,0-5.15-3,16.85,16.85,0,0,0-8.25.54c-5.79,1.68-12.93,5.87-21.36,13.49-20.89,18.86-44.7,54-44.77,54.06h0a3,3,0,0,1-1.43,1.12c-3.87,1.46-6.39-.19-7.88-4.16-2.65-7-1-24.46.62-42,1-10.32,1.92-20.69,2-28.67.08-6.44-1.41-12.87-4.29-17.45-2.29-3.6-5.48-6-9.44-6a11.74,11.74,0,0,0-11,5.89c-2.42,4-3.57,9.45-4.44,14.65-4.85,28.73-4.22,76.78-4.22,76.92v.06c11,6.95,19.38,16.76,17.46,27.41V131a16.08,16.08,0,0,1-.57,2.14h0a17.87,17.87,0,0,1-8.09,10.09,16.48,16.48,0,0,1-11.61,2c-.43-.09-.87-.21-1.34-.35-10.47-1.74-16.66-7.43-22.85-13.15-5.53-3.48-4.11-10.29,8.54.22,4.24,3.49,8.94,6.5,15.35,7.51h.23l.21.07a8.75,8.75,0,0,0,1,.25,11,11,0,0,0,7.69-1.33,12.46,12.46,0,0,0,5.61-7h0c.17-.51.31-1,.43-1.56h0c2.86-16.77-31.46-32.35-44.88-31.11C30.4,99.72,24,111.55,21.56,122.07h0c-3.46,19.15,16.06,35.13,30.85,43,10,5.69,13.56,12.37-.42,5.43-1.91-1-3.87-2-5.83-3.14C35.45,183,10.91,216.39,7.58,227.43a37.74,37.74,0,0,0-1.45,7.74,36.64,36.64,0,0,0,67.45,22.5c10.61-16.7,24-36.07,35.32-53-5.21-.56-9.87-1.88-12.83-4.23C85.6,192.13,88.94,187.4,99.65,195.91Z"/><path class="cls-2" d="M173.51,158.7c-5.67,10.77-24.69,31.39-39.74,37.51-8.25,3.37-27.33,5.09-34.12-.3-10.71-8.51-14.05-3.78-3.58,4.53,3,2.35,7.62,3.67,12.83,4.23-11.36,16.93-24.71,36.3-35.32,53a36.64,36.64,0,0,1-67.45-22.5,37.74,37.74,0,0,1,1.45-7.74c3.33-11,27.87-44.43,38.57-60.15,2,1.13,3.92,2.19,5.83,3.14,14,6.94,10.39.26.42-5.43-14.82-7.88-34.33-23.82-30.85-43h0C24,111.5,30.39,99.67,40.62,98.76,54,97.56,88.36,113.14,85.5,129.87c-.12.53-.26,1-.43,1.56h0a12.46,12.46,0,0,1-5.61,7,11,11,0,0,1-7.73,1.35c-.37-.08-.69-.16-1-.25l-.16,0h-.23c-6.41-1-11.11-4-15.35-7.51-12.65-10.51-14-3.7-8.54-.22,6.19,5.72,12.38,11.41,22.82,13.12.47.14.91.26,1.34.35a16.48,16.48,0,0,0,11.61-2,17.86,17.86,0,0,0,8.12-10.06h0A16.08,16.08,0,0,0,90.9,131V131c1.92-10.65-6.46-20.46-17.46-27.41v-.06c0-.14-.63-48.18,4.22-76.92.87-5.2,2-10.68,4.44-14.65,2.16-3.56,5.52-6,11-5.92,4,0,7.15,2.47,9.45,6.14,2.88,4.58,4.37,11,4.29,17.45-.09,8-1,18.35-2,28.67-1.64,17.52-3.27,34.93-.62,42,1.49,4,4,5.62,7.88,4.16a3,3,0,0,0,1.43-1.11c.07-.11,23.88-35.2,44.77-54.06,8.43-7.62,15.57-11.81,21.36-13.49a16.85,16.85,0,0,1,8.25-.54,9.72,9.72,0,0,1,5.15,3,12.48,12.48,0,0,1,2.61,5c2.36,8.17-1.64,12.31-6.67,17.5l-.15.17c-1.51,1.55-3.07,3.18-4.5,4.86-1.73,2-3.92,4.33-6.43,6.94-8.8,9.16-21.42,22.31-32.92,43.9a94.94,94.94,0,0,0-8.22,11c-8.58,12.78-15.29,24.64-1.36,33.93,12,8,23.25.81,31.32-10.93a31.79,31.79,0,0,0,4.85-11.24c2.09-10.23-5.2-7.57-5.73-1.68a20.2,20.2,0,0,1-3.83,9.61c-6.32,9.18-13.92,15.68-23.35,9.4-11.18-7.45-3.52-16.26,2.94-25.88,5.4-8,8.9-13.36,17.48-17.62h0c10.12-4.3,16.48-.25,20.52,9a29.52,29.52,0,0,1,.88,20.31,78.34,78.34,0,0,1-3.07,8.1c-1.2,2.71-2.53,5.42-3.93,8.08"/><path class="cls-3" d="M95,192.7c12.3,4.29,27.93,4.39,46.89-.86a47.59,47.59,0,0,1-8.08,4.34c-8.25,3.37-27.33,5.09-34.12-.3A33,33,0,0,0,95,192.7Z"/><path class="cls-3" d="M59,173.21c-5.43-.83-14.68,1.17-20.07,4.6l7.3-10.53c2,1.13,3.92,2.19,5.83,3.14a35.76,35.76,0,0,0,7,2.79Z"/><path class="cls-3" d="M95.23,199.73c2.17,5.64,4.66,14.78,4.57,18.41,3.11-4.59,6.17-9.12,9.1-13.49-5.21-.56-9.87-1.88-12.83-4.23l-.84-.69"/><path class="cls-3" d="M50.67,128.78A46.88,46.88,0,0,1,55,132c4.24,3.49,8.94,6.5,15.35,7.51h.23l.21.07a8.75,8.75,0,0,0,1,.25,11,11,0,0,0,7.69-1.33,12.46,12.46,0,0,0,5.61-7c-7.89,10.17-20.64,5.33-34.41-2.69"/><path class="cls-3" d="M165.75,138.67c-5.77,11.42-21.83,23.94-31.12,14.17a14.82,14.82,0,0,0,4.11,3.82c9.43,6.28,17.06-.22,23.35-9.4a21.15,21.15,0,0,0,3.71-8.59"/><path class="cls-3" d="M6.4,232.78a46.83,46.83,0,0,0,53.67,37.5c-.32.18-.64.34-1,.51A36.63,36.63,0,0,1,6.13,235.17c.07-.8.16-1.6.27-2.39"/></g></g></g></g></svg>