<svg xmlns="http://www.w3.org/2000/svg" viewBox="0 0 250.17 280.69"><defs><style>.cls-1{fill:#3a382b;}.cls-2{fill:#fed196;}.cls-2,.cls-3{fill-rule:evenodd;}.cls-3{fill:#caa171;}</style></defs><g id="Layer_2" data-name="Layer 2"><g id="Layer_2-2" data-name="Layer 2"><g id="Layer_2-3" data-name="Layer 2"><g id="Layer_1-2" data-name="Layer 1-2"><path class="cls-1" d="M206.71,49.6a14,14,0,0,0-.46-1.56h0c-1.27-3.57-3.36-8.5-7.17-11.65s-9.15-4.7-17.66-2.31h0c-11.75,4-24.24,10.63-33.62,19.61-7.53,7.16-13.14,15.8-14.9,25.7v1A16.23,16.23,0,0,0,148,95.14h.61a33.75,33.75,0,0,0,8.45-1.54,34.53,34.53,0,0,0,6.86-3.06A55.75,55.75,0,0,1,169.88,79c8-12,20.25-21.6,32.7-27.86l.19-.08a39.31,39.31,0,0,1,4-1.5m-94.57,3.26a79.13,79.13,0,0,1,13.41,15.4c.57.87,1.11,1.74,1.63,2.59A58.33,58.33,0,0,1,142.51,48a98.86,98.86,0,0,1,32.41-19.88,10.06,10.06,0,0,0-.07-1.46,14.06,14.06,0,0,0-.79-3.68,29.44,29.44,0,0,0-5.87-10.47,15.42,15.42,0,0,0-12.9-4.66c-10.3.71-20,5.17-28.46,11.64a91.56,91.56,0,0,0-23,26.94A77.23,77.23,0,0,1,112.16,52.85ZM99.67,255.62a53.74,53.74,0,0,1-74.94,16.23,55.3,55.3,0,0,1-22.4-62c1.73-5.83,2.31-5.69,5.1-10.58l54.51-83.77A94.9,94.9,0,0,1,47.5,90.06c-6-16.92-3.46-31.19,5.45-42l.11-.13.1-.13c11.76-13,27.45-12.93,42-6.27.72.33,1.42.67,2.13,1a99.67,99.67,0,0,1,25-29.24c9.61-7.4,20.7-12.42,32.6-13.24,8.74-.6,14.74,2.59,18.94,7a36.81,36.81,0,0,1,7.57,13.22,21.92,21.92,0,0,1,1.2,5.48c9.75-2,16.59.49,21.44,4.59,5.27,4.43,7.92,10.58,9.51,15h0a21.23,21.23,0,0,1,.76,2.7,29.84,29.84,0,0,1,11.42,1.3,31,31,0,0,1,12.48,7.54,38.78,38.78,0,0,1,8.38,12.48A48.16,48.16,0,0,1,248,102.12a110.39,110.39,0,0,1-4.38,11.7c-1.68,3.88-3.53,7.76-5.43,11.38-10,19.19-52.24,61.91-75.76,64.28a39.85,39.85,0,0,1-17.67-2.31Zm33.61-84c10.21,8.23,19.82,11,28.38,10.08,20.59-2.07,61.08-43.54,69.72-60.17,1.85-3.57,3.62-7.23,5.2-10.87a106,106,0,0,0,4.09-10.91,40.28,40.28,0,0,0-1.19-27.36,31.06,31.06,0,0,0-6.66-10,23.61,23.61,0,0,0-9.42-5.75A24.75,24.75,0,0,0,206,58.2h0c-11.4,5.73-22.6,14.42-29.76,25.22-5.7,8.61-8.84,18.59-7.37,29.48a23.39,23.39,0,0,0,9.3,12c5.3,3.57,11.14,4.91,14.6,4.24h.06a31,31,0,0,0,20.93-13.25c3.4-5,4.17-9.4,5.1-12.93,5.9-22.71,11.41-15.43,7.66,2.25a43.4,43.4,0,0,1-6.38,15.1,38.66,38.66,0,0,1-25.93,16.49h0c-5.1,1-13.3-.73-20.24-5.41A31,31,0,0,1,161.53,115l-.1-.32v-.31a47.6,47.6,0,0,1,0-14c-.68.26-1.38.51-2.07.73A43.3,43.3,0,0,1,149,102.94h0a9,9,0,0,1-1,0,23.33,23.33,0,0,1-14-5.55l-.12-.09a20.5,20.5,0,0,1-4.34,9.47v.08a25.33,25.33,0,0,1-2,2h0a22.7,22.7,0,0,1-15.31,6.16,20.92,20.92,0,0,1-14-5.17,17.46,17.46,0,0,1-1.28-1.3c-10.66-8.53-14-18.87-17.17-29.2C75.79,72,81.64,65.23,89,85.05c2.47,6.64,5.82,12.94,12.27,18.11l.23.18.19.22c.26.29.57.59.91.91a14,14,0,0,0,9.4,3.41,15.75,15.75,0,0,0,10.62-4.33h0a18.51,18.51,0,0,0,1.43-1.37h0c5.78-7.17,2.92-18.91-4.34-29.93a72,72,0,0,0-12.18-14A63.55,63.55,0,0,0,92.23,48c-11.84-5.49-24.6-5.66-33.89,4.6h0c-7.29,8.87-9.34,20.7-4.25,35,4.6,12.94,14.87,27.68,32.1,43.91,15,14.23,10.52,19.52-4,5.88A196.58,196.58,0,0,1,67,121.74C52.32,143.57,13.86,197.9,9.64,212.05,2.19,237,16.11,263.36,40.72,270.91A46.28,46.28,0,0,0,93.55,251c14-22.44,29.45-44.85,44.1-67.06a63.1,63.1,0,0,1-9.11-6.17C114.63,166.57,119.05,160.22,133.28,171.66Z"/><path class="cls-2" d="M112.06,115a20.92,20.92,0,0,1-14-5.17,17.3,17.3,0,0,1-1.28-1.29c-10.51-8.51-13.81-18.85-17-29.18C75.79,72,81.64,65.23,89,85.05c2.47,6.64,5.82,12.94,12.27,18.11l.23.18.19.22c.26.29.57.59.91.91a14,14,0,0,0,9.4,3.41,15.75,15.75,0,0,0,10.62-4.33h0a18.51,18.51,0,0,0,1.43-1.37c5.78-7.17,2.92-18.91-4.34-29.93a72,72,0,0,0-12.18-14A63.55,63.55,0,0,0,92.23,48c-11.84-5.49-24.6-5.66-33.89,4.6h0c-7.29,8.87-9.34,20.7-4.25,35,4.6,12.94,14.87,27.68,32.1,43.91,15,14.23,10.52,19.52-4,5.88A196.58,196.58,0,0,1,67,121.74C52.32,143.57,13.86,197.9,9.64,212.05,2.19,237,16.11,263.36,40.72,270.91A46.28,46.28,0,0,0,93.55,251c14-22.44,29.45-44.85,44.1-67.06a63.1,63.1,0,0,1-9.11-6.17c-13.91-11.2-9.49-17.55,4.74-6.11,10.21,8.23,19.82,11,28.38,10.08,20.59-2.07,61.08-43.54,69.72-60.17,1.85-3.57,3.62-7.23,5.2-10.87a106,106,0,0,0,4.09-10.91,40.28,40.28,0,0,0-1.19-27.36,31.06,31.06,0,0,0-6.66-10,23.61,23.61,0,0,0-9.42-5.75A24.75,24.75,0,0,0,206,58.2h0c-11.4,5.73-22.6,14.42-29.76,25.22-5.7,8.61-8.84,18.59-7.37,29.48a23.39,23.39,0,0,0,9.3,12c5.3,3.57,11.14,4.91,14.6,4.24h.06a31,31,0,0,0,20.93-13.25c3.4-5,4.17-9.4,5.1-12.93,5.9-22.71,11.41-15.43,7.66,2.25a43.4,43.4,0,0,1-6.38,15.1,38.66,38.66,0,0,1-25.93,16.49h0c-5.1,1-13.3-.73-20.24-5.41A31,31,0,0,1,161.53,115l-.1-.32v-.31a47.6,47.6,0,0,1,0-14c-.68.26-1.38.51-2.07.73A43.3,43.3,0,0,1,149,102.94h0a9,9,0,0,1-1,0,23.33,23.33,0,0,1-14-5.55l-.12-.09a20.5,20.5,0,0,1-4.34,9.47v.08a25.33,25.33,0,0,1-2,2h0a22.7,22.7,0,0,1-15.31,6.16m62.9-86.93a11.88,11.88,0,0,0-.06-1.47,14.4,14.4,0,0,0-.79-3.67A29.88,29.88,0,0,0,168.4,12.5a15.41,15.41,0,0,0-12.9-4.65c-10.3.71-20,5.17-28.47,11.64a91.56,91.56,0,0,0-23,26.94,77.13,77.13,0,0,1,8.26,6.39,80.07,80.07,0,0,1,13.25,15.43c.57.87,1.11,1.74,1.63,2.59A58.33,58.33,0,0,1,142.51,48,99,99,0,0,1,175,28.09Zm-26.63,67h.09A33.75,33.75,0,0,0,157,93.59a35.17,35.17,0,0,0,6.91-3A55.75,55.75,0,0,1,169.88,79c8-12,20.25-21.6,32.7-27.86l.19-.08a39.31,39.31,0,0,1,4-1.5c-.13-.53-.28-1.05-.46-1.57h0c-1.28-3.57-3.37-8.5-7.17-11.64s-9.15-4.71-17.66-2.31c-11.76,4-24.25,10.64-33.63,19.62-7.52,7.16-13.14,15.8-14.9,25.7v1A16.25,16.25,0,0,0,148,95.14Z"/><path class="cls-3" d="M187.65,136.72c-21.59.8-59-20.83-61.9-26.51.55-.42,1.08-.88,1.6-1.29h0a24,24,0,0,0,2-2v-.07a20.68,20.68,0,0,0,4.33-9.47l.12.09a23.33,23.33,0,0,0,14,5.55,9,9,0,0,0,1,0h0a42.65,42.65,0,0,0,10.33-1.88c.69-.22,1.39-.46,2.07-.72a47.53,47.53,0,0,0,0,14v.31l.1.33a31,31,0,0,0,12.44,16.39,34,34,0,0,0,13.75,5.4"/><path class="cls-3" d="M88.89,143c-13.78-8.67-26.12-13.56-35.54-1.3,5.38-7.85,10.21-14.83,13.66-20a196.52,196.52,0,0,0,15.12,15.69,55.94,55.94,0,0,0,6.76,5.54Z"/><path class="cls-3" d="M117.87,106.71c-13.53-3-23.05-14.53-31.61-28h0A61.07,61.07,0,0,1,89,85c2.47,6.64,5.82,12.94,12.27,18.11l.23.18.19.22c.26.29.57.58.91.91a14,14,0,0,0,9.4,3.41,15.51,15.51,0,0,0,5.85-1.29"/><path class="cls-3" d="M170.27,116.15c16.3,11.46,33,11.16,50.68-20.2h0c-.69,1.9-1.4,4.2-2.1,6.94-.92,3.52-1.69,7.9-5.11,12.94a31,31,0,0,1-20.92,13.24h-.07c-3.45.67-9.3-.67-14.59-4.24a23.88,23.88,0,0,1-7.9-8.68"/><path class="cls-3" d="M121.06,169.93q9,18.85.81,37.72,7.95-11.88,15.78-23.71a63.1,63.1,0,0,1-9.11-6.17,32.37,32.37,0,0,1-7.47-7.84h0"/><path class="cls-3" d="M192.83,164.27c-23.9,11.37-45.79,11.52-66.13,2.92h0a43.06,43.06,0,0,1,6.58,4.47c10.21,8.23,19.82,11,28.38,10.08,8.29-.83,19.8-8.06,31.17-17.47"/><path class="cls-3" d="M8.13,218.94c5.3,28.5,29.86,49.14,58.47,49.15a59.27,59.27,0,0,0,9.77-.81c-.4.23-.81.44-1.27.66a46.29,46.29,0,0,1-62.51-21.06A47.85,47.85,0,0,1,7.8,222c.08-1,.19-2.06.33-3.08"/><path class="cls-3" d="M142.56,48a58.4,58.4,0,0,0-15.31,22.88c-.51-.86-1.06-1.73-1.62-2.58a79.6,79.6,0,0,0-13.47-15.42,76,76,0,0,0-8.25-6.39c.51-.91,1-1.8,1.59-2.71a73,73,0,0,1,6.06,4.88A61.13,61.13,0,0,1,120,57.26c6.53,8.65,9.06,3.65,10.84.37A58.39,58.39,0,0,1,142,43.74a99.24,99.24,0,0,1,32.41-19.88v-.12a15.83,15.83,0,0,1,.54,2.89c0,.48.06,1,.06,1.46A99.24,99.24,0,0,0,142.57,48"/><path class="cls-3" d="M166.48,79.83c.67-1.23,1.44-2.39,2.22-3.56,8.12-12,20.63-21.59,33.32-27.85l.19-.09c1.28-.51,2.45-1,3.65-1.37l.39,1.08h0a14,14,0,0,1,.46,1.56,40.07,40.07,0,0,0-4,1.5l-.19.08C190.11,57.44,177.83,67,169.86,79a56.21,56.21,0,0,0-5.93,11.51,34.93,34.93,0,0,1-6.92,3,33.67,33.67,0,0,1-8.44,1.54H148a16.67,16.67,0,0,1-13.42-8.94c14.53,11.64,27.17,2.25,31.9-6.38"/></g></g></g></g></svg>